<?xml version="1.0" encoding="UTF-8" standalone="no"?>
<svg width="640px" height="150px" viewBox="0 0 640 150" version="1.1" xmlns="http://www.w3.org/2000/svg" xmlns:xlink="http://www.w3.org/1999/xlink">
    <!-- Generator: Sketch 45.1 (43504) - http://www.bohemiancoding.com/sketch -->
    <title>muthesius_logo</title>
    <desc>Created with Sketch.</desc>
    <defs></defs>
    <g id="Symbols" stroke="none" stroke-width="1" fill="none" fill-rule="evenodd">
        <g id="muthesius_logo" fill="#000000">
            <path d="M640,124.092809 L640,115.833047 C640,107.196267 635.3343,97.2467462 625.136549,97.2467462 C609.926557,97.2467462 608.199103,115.456028 608.199103,123.904825 C608.199103,132.540555 609.408846,150 624.100077,150 C625.48309,150 629.112317,149.437097 630.839771,148.874194 C632.741545,148.123307 639.482289,140.612332 639.482289,135.35717 L639.482289,132.352571 L634.123508,132.352571 C634.296778,135.170236 632.913765,139.298542 631.358532,141.552254 C630.32206,143.240963 628.248065,144.743788 626.865053,145.118707 C625.82753,145.306691 625.48309,145.118707 624.444517,145.118707 C615.285338,145.118707 614.248866,134.606283 614.248866,128.787168 C614.248866,127.284343 614.075596,125.406599 614.594357,124.092809 L640,124.092809 Z M595.927358,148.874194 L601.286139,148.874194 L601.286139,80.1632699 L595.927358,80.1632699 L595.927358,148.874194 Z M586.594908,148.874194 L586.594908,98.3725522 L580.546196,98.3725522 L580.546196,136.294992 C580.546196,140.426448 574.150942,145.118707 570.867205,145.118707 C565.162933,145.118707 562.744498,138.172736 562.571228,134.230314 L562.571228,98.3725522 L557.213497,98.3725522 L557.213497,136.857895 C557.213497,143.991851 562.399008,150 569.657463,150 C570.867205,150 572.94225,149.625081 574.324213,149.437097 C575.360685,149.249113 576.743698,148.311291 577.434679,147.746288 C578.989912,146.432497 580.199655,144.554754 581.237177,143.617982 C581.755938,144.554754 581.582668,147.183385 581.582668,148.874194 L586.594908,148.874194 Z M549.26406,148.874194 L549.26406,109.824898 C549.26406,102.126989 543.214297,97.2467462 536.646824,97.2467462 C535.436031,97.2467462 533.362037,97.6216648 532.671055,97.9976336 C531.114772,98.748521 528.696337,100.062311 527.485544,101.376102 C526.794563,102.126989 526.449072,103.253845 525.41155,104.379651 L525.41155,80.1632699 L519.708328,80.1632699 L519.708328,148.874194 L524.893839,148.874194 L524.893839,114.142238 C525.067109,109.636914 528.696337,102.126989 535.09159,102.126989 C539.930561,102.126989 543.905279,107.384251 543.905279,112.641513 L543.905279,148.874194 L549.26406,148.874194 Z M512.104382,136.857895 L512.104382,134.04338 L506.22684,134.04338 C506.40011,136.672011 506.22684,139.111607 504.499386,142.115157 C504.153896,142.67806 503.808405,143.054029 503.288594,143.428947 C501.906631,144.180885 499.313875,145.118707 498.278453,145.118707 C488.771683,145.118707 489.289394,129.911924 489.289394,124.467728 C489.289394,118.272644 488.253972,102.126989 498.278453,102.126989 C499.313875,102.126989 501.906631,102.877877 503.288594,103.816748 C503.808405,104.192717 504.153896,104.75562 504.499386,105.318523 C506.22684,108.136189 506.40011,111.138688 506.22684,112.827397 L511.585621,112.827397 L511.585621,107.196267 C511.585621,100.625214 503.116373,97.2467462 498.796164,97.2467462 C482.5497,97.2467462 483.413952,115.456028 483.413952,124.467728 C483.413952,132.915474 482.895191,150 498.796164,150 C503.808405,150 512.104382,146.432497 512.104382,136.857895 L512.104382,136.857895 Z M477.018699,136.107008 C477.018699,117.897725 456.106535,122.40305 456.106535,109.449979 C456.106535,105.130539 459.909033,102.126989 463.538261,102.126989 C464.748003,102.126989 467.167488,102.877877 468.549451,103.816748 C469.069262,104.192717 469.588023,104.75562 469.760244,105.130539 C470.451225,107.196267 471.315477,109.636914 471.487697,111.701591 L476.846478,111.701591 L476.846478,108.699092 C477.018699,102.502958 471.660968,97.2467462 464.229242,97.2467462 C456.970787,97.2467462 450.747754,100.625214 450.747754,110.012882 C450.747754,127.096359 471.487697,122.215065 471.487697,136.857895 C471.487697,141.927173 468.549451,145.68266 463.883751,145.68266 C462.501788,145.68266 461.290996,145.494676 460.426744,145.118707 C458.872561,144.36887 457.316278,143.240963 456.797516,142.115157 C455.415554,139.675561 454.896793,135.921124 455.069013,134.04338 L449.711282,134.04338 L449.711282,139.486526 C449.711282,140.800316 451.094295,143.617982 451.786326,145.118707 C452.477307,146.245563 453.85927,147.372419 454.204761,147.746288 C455.242283,148.311291 456.797516,149.249113 457.833989,149.437097 C459.563542,149.625081 462.155248,150 463.36604,150 C470.623445,150 477.018699,146.808466 477.018699,136.107008 L477.018699,136.107008 Z M443.316028,148.874194 L443.316028,108.699092 C443.316028,101.001183 436.057573,97.2467462 430.526571,97.2467462 C426.724073,97.2467462 423.613607,99.1234396 419.293398,104.379651 L419.293398,80.1632699 L413.589126,80.1632699 L413.589126,148.874194 L418.946857,148.874194 L418.946857,115.833047 C418.946857,111.138688 422.058374,102.126989 429.144609,102.126989 C433.119327,102.126989 437.786077,105.881426 437.786077,111.138688 L437.786077,148.874194 L443.316028,148.874194 Z M363.467771,60.0751938 C363.467771,43.1786517 339.0986,43.9295391 339.0986,34.5429214 C339.0986,30.2245311 342.382337,28.3478377 345.321633,28.3478377 C348.60432,28.3478377 351.542566,30.0375969 351.715837,36.4196148 L362.431299,36.4196148 L362.431299,31.3513873 C362.431299,26.6580784 354.999573,22.1517038 352.406818,21.5898509 C350.505044,21.2138821 347.394577,20.8379133 346.357055,20.8379133 C339.0986,20.8379133 328.728628,24.0294474 328.728628,35.6687274 C328.728628,53.1292226 352.579038,49.5606696 352.579038,61.5769686 C352.579038,65.3314056 349.814062,68.1469709 345.839344,68.1469709 C341.345865,68.1469709 338.235398,63.8296308 339.0986,58.5734189 L327.864377,58.5734189 L327.864377,62.5158404 C327.864377,73.404233 340.480563,76.2197982 345.666074,76.2197982 C353.097799,76.2197982 363.467771,72.2773768 363.467771,60.0751938 L363.467771,60.0751938 Z M405.98413,138.548704 L405.98413,134.04338 L400.627449,134.04338 C400.280908,142.303141 397.689203,145.118707 392.158201,145.118707 C382.999022,145.118707 383.343463,130.100958 383.343463,124.655712 C383.343463,119.023531 382.479211,102.126989 392.502642,102.126989 C396.998221,102.126989 400.280908,105.318523 400.627449,112.827397 L405.98413,112.827397 L405.98413,109.261995 C406.1574,100.813199 397.343712,97.2467462 392.675912,97.2467462 C376.085008,97.2467462 377.812461,115.456028 377.812461,123.904825 C377.812461,134.04338 376.603769,150 393.023503,150 C395.959649,150 401.31843,149.249113 403.911186,144.554754 C404.947658,142.491126 406.1574,139.675561 405.98413,138.548704 L405.98413,138.548704 Z M321.295853,67.3960835 L321.295853,21.9637194 L310.926931,21.9637194 L310.926931,59.8872094 C310.926931,64.2045494 307.815415,68.1469709 303.667426,68.1469709 C302.630954,68.1469709 297.101002,66.8331805 297.101002,62.7027746 L297.101002,21.9637194 L286.212269,21.9637194 L286.212269,65.7063243 C286.212269,73.404233 295.371448,76.2197982 298.482965,76.2197982 C302.112193,76.2197982 307.469924,74.530039 310.58144,69.2738271 C311.100201,71.1505205 310.926931,73.5911672 310.926931,75.0939922 L321.295853,75.0939922 C323.370897,73.0282642 321.295853,69.0858427 321.295853,67.3960835 L321.295853,67.3960835 Z M370.899497,123.71684 C370.899497,115.645063 369.689754,97.2467462 354.826303,97.2467462 C339.961802,97.2467462 338.235398,114.706191 338.235398,123.71684 C338.235398,131.226764 339.617361,150 354.480812,150 C368.826552,150 370.899497,134.04338 370.899497,123.71684 L370.899497,123.71684 Z M266.335528,75.0939922 L277.22321,75.0939922 L277.22321,21.9647696 L266.335528,21.9647696 L266.335528,75.0939922 Z M331.149164,148.874194 L331.149164,110.950704 C331.321384,103.066911 325.963653,97.2467462 318.530877,97.2467462 C314.729429,97.2467462 309.890459,99.6863426 307.296653,104.379651 L307.296653,80.1632699 L301.593431,80.1632699 L301.593431,148.874194 L306.952213,148.874194 L306.952213,113.579335 C306.952213,108.510057 312.136674,102.126989 317.148914,102.126989 C322.679916,102.126989 325.790382,107.947154 325.790382,113.767319 L325.790382,148.874194 L331.149164,148.874194 Z M258.903802,60.0751938 C258.903802,42.2397799 235.053392,44.6804265 235.053392,34.354937 C235.053392,30.4125155 237.300657,28.3478377 240.756614,28.3478377 C245.250094,28.3478377 247.496308,31.9142903 247.151868,36.4196148 L258.386091,36.4196148 L258.386091,33.4160651 C258.386091,23.8425132 247.325138,20.8379133 241.793086,20.8379133 C233.8426,20.8379133 224.164659,24.4054162 224.164659,35.6687274 C224.164659,51.6274478 248.016119,50.1246228 248.016119,61.764953 C248.016119,65.51939 245.250094,68.1469709 241.620866,68.1469709 C236.954116,68.1469709 234.18914,65.3314056 234.535681,58.5734189 L223.300408,58.5734189 L223.300408,60.8260812 C223.300408,72.8402798 234.880122,76.2197982 241.275375,76.2197982 C248.534881,76.2197982 258.903802,72.6522954 258.903802,60.0751938 L258.903802,60.0751938 Z M295.025958,148.874194 L295.025958,143.617982 C293.989486,143.617982 292.433202,144.180885 291.39673,144.180885 C290.013717,144.180885 285.693508,143.617982 285.693508,140.049429 L285.693508,103.066911 L292.951963,103.066911 L292.951963,98.1845678 C290.532478,98.3725522 288.112993,98.3725522 285.520238,98.1845678 L285.520238,87.6710938 C284.138275,88.2339968 281.71774,89.3619032 280.162507,90.4877093 L280.162507,142.67806 C280.162507,144.931773 283.965005,148.874194 286.038999,148.874194 L295.025958,148.874194 Z M217.769406,50.8755102 L217.769406,40.3620363 C217.769406,37.7344554 214.313449,28.3478377 214.140178,27.9718689 C209.473429,22.1517038 204.115697,20.8379133 199.103457,20.8379133 C182.166011,20.8379133 179.574306,36.2326806 179.574306,48.2468792 C179.574306,59.5122907 181.64725,76.2197982 199.103457,76.2197982 C202.388244,76.2197982 210.683171,74.530039 214.486719,68.7109241 C215.695412,66.8331805 217.251695,63.2667278 217.251695,62.1398716 L217.251695,58.0094657 L206.017471,58.0094657 C206.017471,64.3925338 203.252496,67.5840679 199.103457,67.5840679 C192.190492,67.5840679 190.98075,58.3854345 190.98075,53.6910755 C190.98075,52.377285 190.80853,52.0013162 191.326241,50.8755102 L217.769406,50.8755102 Z M272.730781,135.732089 C272.730781,119.774419 251.473127,121.089259 251.473127,109.636914 C251.473127,105.507558 255.965556,102.126989 259.077073,102.126989 C263.224011,102.126989 266.681018,104.567636 266.854289,111.701591 L272.21307,111.701591 L272.21307,108.322073 C272.21307,106.070461 269.619265,99.311424 264.607024,97.9976336 C263.224011,97.6216648 260.977796,97.2467462 259.941324,97.2467462 C254.237052,97.2467462 245.941075,99.6863426 245.941075,110.012882 C245.941075,127.096359 266.854289,122.215065 266.854289,136.857895 C266.854289,142.303141 263.916043,145.68266 259.077073,145.68266 C253.20058,145.68266 251.126586,142.115157 250.435604,134.04338 L245.077873,134.04338 L245.077873,138.923623 C245.077873,143.054029 249.398082,148.311291 251.645347,148.874194 C254.064832,149.437097 257.520789,150 258.730532,150 C266.508798,150 272.730781,145.869594 272.730781,135.732089 L272.730781,135.732089 Z M173.179053,75.0939922 L173.179053,31.7263059 C173.179053,24.4054162 165.919547,20.8379133 160.562866,20.8379133 C155.722846,20.8379133 151.229367,22.7146068 148.291121,27.7838845 L148.291121,0 L137.575658,0 L137.575658,75.0939922 L147.94563,75.0939922 L147.94563,38.2973584 C147.94563,35.4817932 149.847404,28.9107407 155.377355,28.9107407 C156.932589,28.9107407 162.29032,30.7884843 162.29032,35.1058244 L162.29032,75.0939922 L173.179053,75.0939922 Z M238.5104,148.874194 L238.5104,108.322073 C238.5104,101.189168 230.386642,97.2467462 226.411924,97.2467462 C221.917395,97.2467462 217.769406,99.4994084 215.00443,104.192717 C214.657889,102.126989 214.657889,100.062311 214.657889,98.3725522 L208.954667,98.3725522 L208.954667,148.874194 L214.83116,148.874194 L214.83116,112.641513 C214.83116,108.699092 219.152419,102.126989 224.68237,102.126989 C227.793887,102.126989 233.151618,105.130539 233.151618,110.575785 L233.151618,148.874194 L238.5104,148.874194 Z M129.970662,75.6568952 L129.970662,67.2091493 C128.415429,67.2091493 128.242159,67.5840679 127.033466,67.5840679 C125.477183,67.5840679 121.155924,66.6451961 121.155924,62.1398716 L121.155924,29.8496125 C124.09522,29.2867095 127.033466,29.4736437 129.970662,29.8496125 L129.970662,21.7767852 C127.033466,21.9637194 124.09522,21.9637194 120.982653,21.7767852 L120.982653,7.50887412 C117.526696,9.01064895 113.724198,10.8873424 110.787002,12.3901674 L110.787002,67.9600367 C110.787002,74.1551204 120.464942,75.8448796 122.365666,75.8448796 C123.576459,75.8448796 127.551177,75.0939922 129.970662,75.6568952 L129.970662,75.6568952 Z M200.65869,148.874194 L200.65869,98.3725522 L194.955468,98.3725522 L194.955468,134.04338 C194.955468,138.735639 190.289769,145.118707 184.759817,145.118707 C182.166011,145.118707 177.153771,142.115157 177.153771,137.985801 L177.153771,98.3725522 L171.277279,98.3725522 L171.277279,135.732089 C171.105058,142.867095 175.253047,150 183.549024,150 C188.215774,150 191.326241,148.68621 195.128739,143.617982 C195.64645,144.554754 195.474229,147.183385 195.474229,148.874194 L200.65869,148.874194 Z M166.266088,148.874194 L149.327593,121.277244 L165.228566,98.3725522 L159.006583,98.3725522 L143.27888,120.525306 L143.27888,80.1632699 L137.575658,80.1632699 L137.575658,148.874194 L143.10561,148.874194 L143.10561,122.028131 L159.352074,148.874194 L166.266088,148.874194 Z M102.489975,75.0939922 L102.489975,21.9637194 L91.4290215,21.9637194 L91.4290215,60.8260812 C91.4290215,64.7685026 87.6265235,68.1469709 84.1705663,68.1469709 C81.5778109,68.1469709 77.6020425,66.0822931 77.4298222,61.5769686 L77.4298222,21.9637194 L66.7143598,21.9637194 L66.7143598,64.0176152 C66.7143598,72.4653612 73.8005946,76.2197982 79.5038165,76.2197982 C83.3052644,76.2197982 88.4907753,74.3420546 91.0835308,69.2738271 C91.6022919,71.1505205 91.4290215,73.5911672 91.4290215,75.0939922 L102.489975,75.0939922 Z M58.5906027,75.0939922 L58.5906027,29.6616281 C58.7638731,23.6545288 49.6036439,20.8379133 46.1466367,20.8379133 C42.8628998,20.8379133 36.6409168,22.1517038 34.2214317,27.2209814 C31.1109653,22.1517038 26.0987248,20.8379133 22.8139378,20.8379133 C18.1482381,20.8379133 14.1724697,22.1517038 10.8887328,27.7838845 C10.3710218,25.7192066 10.3710218,23.6545288 10.5442922,21.9637194 L0,21.9637194 L0,75.0939922 L10.5442922,75.0939922 L10.5442922,36.6075992 C10.7154624,33.2291309 13.309268,28.9107407 17.629477,28.9107407 C19.5302009,28.9107407 24.0247304,31.1634029 24.0247304,35.1058244 L24.0247304,75.0939922 L34.3947021,75.0939922 L34.3947021,37.7344554 C34.3947021,34.5429214 36.1232058,28.9107407 41.3076666,28.9107407 C42.3451888,28.9107407 47.8751403,30.0375969 47.8751403,34.7309058 L47.8751403,75.0939922 L58.5906027,75.0939922 Z M634.468998,119.211516 L614.248866,119.211516 L614.248866,113.204416 C614.248866,107.947154 618.050314,102.126989 624.444517,102.126989 C631.878343,102.126989 634.468998,110.199817 634.468998,116.39595 L634.468998,119.211516 Z M365.369545,123.71684 C365.369545,128.410149 364.332023,145.118707 354.826303,145.118707 C343.93757,145.118707 344.10979,127.284343 344.10979,123.71684 C344.10979,117.709741 344.975092,102.126989 354.826303,102.126989 C364.676463,102.126989 365.369545,119.962403 365.369545,123.71684 L365.369545,123.71684 Z M206.880673,43.3655859 L190.98075,43.3655859 L190.98075,39.4242146 C190.98075,34.354937 194.437757,28.9107407 198.931237,28.9107407 C205.32649,28.9107407 206.880673,36.7955836 206.880673,40.9259895 L206.880673,43.3655859 L206.880673,43.3655859 Z" id="logo"></path>
        </g>
    </g>
</svg>