<svg id="b7c4eeb9-d10f-40a3-afd6-34f8510df84d" data-name="Ebene 1" xmlns="http://www.w3.org/2000/svg" xmlns:xlink="http://www.w3.org/1999/xlink" viewBox="0 0 150.01 354.84"><defs><clipPath id="ab615c5b-ff23-4f56-bdc4-7684bfe089ab"><rect width="150.01" height="354.84" style="fill:none"/></clipPath></defs><title>haus-by-the-sea-logo</title><g style="clip-path:url(#ab615c5b-ff23-4f56-bdc4-7684bfe089ab)"><path d="M132.89,235.11a6.35,6.35,0,0,0,2.57-5.36,9.41,9.41,0,0,0-.41-3,6.08,6.08,0,0,0-1.62-2.45,7.5,7.5,0,0,0-4.28-1.62l-2.81-.4a2.86,2.86,0,0,1-1-.24,2.1,2.1,0,0,1-.6-.43,1.76,1.76,0,0,1-.36-.49,1.34,1.34,0,0,1-.11-.6A2,2,0,0,1,125,219a3,3,0,0,1,2.11-.64h.42a6.8,6.8,0,0,1,2.39.36,4.51,4.51,0,0,1,1.6,1l3.6-3.6a8.78,8.78,0,0,0-3.38-2.14,14.16,14.16,0,0,0-4.47-.64,9,9,0,0,0-6.21,2.06,6.8,6.8,0,0,0-2.29,5.3,6.35,6.35,0,0,0,1.58,4.66,8,8,0,0,0,4.7,2.08l2.81.39a3.39,3.39,0,0,1,.95.23,2.36,2.36,0,0,1,.7.53,1.77,1.77,0,0,1,.35,1.24c0,1.4-1.12,2.09-3.34,2.09a10.91,10.91,0,0,1-3-.39,4.92,4.92,0,0,1-2.24-1.24L117.63,234a9.27,9.27,0,0,0,3.82,2.41,16.81,16.81,0,0,0,5,.67,10.25,10.25,0,0,0,6.42-2M100,234.75a7.76,7.76,0,0,0,2.57-6.05V213.59H96.88v15a3.48,3.48,0,0,1-.85,2.52,3,3,0,0,1-2.29.88,2.87,2.87,0,0,1-2.27-.9,3.59,3.59,0,0,1-.8-2.5v-15H84.94V228.7a7.82,7.82,0,0,0,2.54,6.07,9.66,9.66,0,0,0,12.56,0m-38.53-6.11H57.45l2.1-6.22Zm8.57,8.27-8.47-23.32H57.19l-8.47,23.32h6l1.15-3.5H63l1.08,3.5Zm-36.62,0V213.59H27.74v9H21.65v-9H15.93v23.32h5.72v-9.25h6.09v9.25Zm96.38,29.76v9.5h-5.73v-9.5l-7-13.83h6.25l3.66,8.67,3.63-8.67h6.25Zm-104.33.24H21.65V271h3.86a2,2,0,0,0,1.59-.61,2.21,2.21,0,0,0,.51-1.47,2.18,2.18,0,0,0-.51-1.43,2,2,0,0,0-1.59-.61M25.22,258H21.65v3.79h3.57a2,2,0,0,0,1.57-.55,2.08,2.08,0,0,0,0-2.68,2,2,0,0,0-1.57-.56m.85,18.19H15.93V252.84h9.65a7.62,7.62,0,0,1,5.49,1.84,6.42,6.42,0,0,1,1.93,4.9,4.85,4.85,0,0,1-.78,2.85,6.57,6.57,0,0,1-1.77,1.76A7.33,7.33,0,0,1,32.51,266a5.33,5.33,0,0,1,.82,3.25,6.46,6.46,0,0,1-2,5.08,7.53,7.53,0,0,1-5.25,1.81m109.1,39.25v-5.1H125.06V306.2h8.64v-5.11h-8.64V297.2h10.11v-5.1H119.34v23.32Zm-51.56,0V292.1H77.89v9H71.8v-9H66.08v23.32H71.8v-9.26h6.09v9.26ZM31.73,297.2v-5.1H14.55v5.1h5.73v18.22H26V297.2Zm94.61,43-2.1,6.22h4.06Zm4.54,14.49-1.08-3.5h-7.16l-1.15,3.5h-6L124,331.35h4.42l8.47,23.32Zm-64.23,0V331.35H82.48v5.1H72.37v3.9H81v5.1H72.37v4.12H82.48v5.1Zm-44.08.17a16.54,16.54,0,0,1-5-.67,9.17,9.17,0,0,1-3.81-2.41l3.66-3.66a5,5,0,0,0,2.24,1.24,10.91,10.91,0,0,0,3,.39c2.23,0,3.34-.69,3.34-2.09a1.77,1.77,0,0,0-.35-1.24,2.4,2.4,0,0,0-.7-.53,3.33,3.33,0,0,0-.95-.22l-2.81-.4a7.93,7.93,0,0,1-4.69-2.07,6.4,6.4,0,0,1-1.59-4.67,6.78,6.78,0,0,1,2.29-5.29,8.91,8.91,0,0,1,6.21-2.07,14.12,14.12,0,0,1,4.47.64,8.69,8.69,0,0,1,3.38,2.15l-3.59,3.59a4.55,4.55,0,0,0-1.61-1,6.78,6.78,0,0,0-2.38-.36h-.43a3,3,0,0,0-2.11.64,2,2,0,0,0-.7,1.52,1.34,1.34,0,0,0,.11.6,1.76,1.76,0,0,0,.36.49,2.3,2.3,0,0,0,.61.43,2.8,2.8,0,0,0,1,.24l2.81.4a7.57,7.57,0,0,1,4.29,1.62,6.3,6.3,0,0,1,1.62,2.45,9.72,9.72,0,0,1,.4,3A6.39,6.39,0,0,1,29,352.88a10.36,10.36,0,0,1-6.43,2M78.62,28.36,98.86,48.59,78.62,68.82Zm0,58,20.24,20.23L78.62,126.77Zm0,57.95,45.59,45.59H105.48L78.62,163Zm0,29,16.62,16.61H78.62Zm50.72,11.49L83.75,139.14h18.73L129.34,166Zm0-29-16.62-16.61h16.62Zm0-29L109.1,106.54l20.24-20.23ZM104,111.66l20.23,20.24H83.75Zm20.23-30.47L104,101.42,83.75,81.19Zm0-7.25H83.75L104,53.71ZM71.38,189.85H54.77l16.61-16.61Zm0-26.86L44.53,189.85H25.79l45.59-45.59Zm0-31.09H20.67V81.19H71.38Zm0-63.08L51.15,48.59,71.38,28.36ZM46,53.71,66.26,73.94H25.79ZM20.67,139.14H37.28L20.67,155.75Zm0,26.85,26.86-26.85H66.26L20.67,184.73ZM94.17,14.93,99.3,9.81,89.49,0,75,14.49,60.51,0l-9.8,9.81,5.12,5.12,4.68-4.69,9.37,9.37L0,89.49l5.12,5.12,8.31-8.3V197.09H136.58V86.31l8.3,8.3L150,89.49,80.12,19.61l9.37-9.37Z" style="fill:#000100"/></g></svg>