<?xml version="1.0" encoding="UTF-8" standalone="no"?>
<svg width="256px" height="228px" viewBox="0 0 256 228" version="1.1" xmlns="http://www.w3.org/2000/svg" xmlns:xlink="http://www.w3.org/1999/xlink">
    <!-- Generator: Sketch 43.2 (39069) - http://www.bohemiancoding.com/sketch -->
    <title>muid-square-wireframe</title>
    <desc>Created with Sketch.</desc>
    <defs></defs>
    <g id="Symbols" stroke="none" stroke-width="1" fill="none" fill-rule="evenodd">
        <g id="muid-square-wireframe" stroke-width="4" stroke="#1A1918">
            <g id="Group-2">
                <g id="Group-4" transform="translate(126.000000, 0.000000)">
                    <path d="M64.96875,114 L64.96875,58 L128,58 L128,114 L64.96875,114 Z" id="Path"></path>
                    <path d="M2,58 L2,2 L65.03125,2 L65.03125,58 L2,58 Z" id="Path"></path>
                    <path d="M2,114 L2,2 L128,2 L128,114 L2,114 Z" id="Path"></path>
                </g>
                <g id="Group-5" transform="translate(126.000000, 112.000000)">
                    <path d="M2,37 L2,2 L128,2 L128,37 L2,37 Z" id="Path"></path>
                    <path d="M2,114 L2,79 L128,79 L128,114 L2,114 Z" id="Path"></path>
                    <path d="M2,114 L2,2 L128,2 L128,114 L2,114 Z" id="Path"></path>
                </g>
                <g id="Group-6" transform="translate(0.000000, 111.000000)">
                    <path d="M65.001532,36 C78.2550533,36 89,46.7449878 89,59.9984716 C89,73.2545759 78.2554896,84 65.001532,84 C51.7449478,84 41,73.2550132 41,59.9984716 C41,46.7445505 51.7453841,36 65.001532,36 Z" id="Path"></path>
                    <path d="M2,114.996597 L2,2.9965971 L128,2.9965971 L128,114.996597 L2,114.996597 Z" id="Path"></path>
                </g>
                <g id="Group-3">
                    <path d="M128,104.017003 L128,114 L117.757651,114 L66.323852,68.6735095 L65.001571,67.5082376 L63.6792559,68.6734709 L12.2423829,114 L2,114 L2,104.017039 L52.5110055,59.5004408 L54.2135462,57.9999496 L52.5109555,56.4995151 L2,11.9859518 L2,2 L12.2423454,2 L63.6792067,47.3295164 L65.001571,48.4948701 L66.3239013,47.3294777 L117.757688,2 L128,2 L128,11.9859875 L77.492064,56.4995544 L75.7896198,57.9999496 L77.492014,59.5004016 L128,104.017003 Z" id="Path"></path>
                    <path d="M2,114 L2,2 L128,2 L128,114 L2,114 Z" id="Path"></path>
                </g>
            </g>
        </g>
    </g>
</svg>