<?xml version="1.0" encoding="UTF-8" standalone="no"?>
<svg width="256px" height="228px" viewBox="0 0 256 228" version="1.1" xmlns="http://www.w3.org/2000/svg" xmlns:xlink="http://www.w3.org/1999/xlink">
    <!-- Generator: Sketch 43.2 (39069) - http://www.bohemiancoding.com/sketch -->
    <title>muid-square-flat</title>
    <desc>Created with Sketch.</desc>
    <defs></defs>
    <g id="Symbols" stroke="none" stroke-width="1" fill="none" fill-rule="evenodd">
        <g id="muid-square-flat" fill-rule="nonzero">
            <g id="muid">
                <g id="m">
                    <rect id="quad" fill="#003399" x="0" y="0" width="128" height="114"></rect>
                    <polygon id="bar-1" fill="#FFFFFF" transform="translate(64.000000, 57.000000) scale(-1, 1) translate(-64.000000, -57.000000) " points="0 1.26835798e-14 23 0 128 93.7382812 128 114 105.25 114 0 20.2617188"></polygon>
                    <polygon id="bar-1" fill="#FFFFFF" points="0 1.26835798e-14 23 0 128 93.7382812 128 114 105.25 114 0 20.2617188"></polygon>
                </g>
                <g id="u" transform="translate(128.000000, 0.000000)">
                    <rect id="red-block-2" fill="#FF0000" x="64" y="57" width="64" height="57"></rect>
                    <rect id="white-block-2" fill="#FFFFFF" x="0" y="57" width="64" height="57"></rect>
                    <rect id="white-block-1" fill="#FFFFFF" x="64" y="0" width="64" height="57"></rect>
                    <rect id="red-block-1" fill="#FF0000" x="0" y="0" width="64" height="57"></rect>
                </g>
                <g id="i" transform="translate(0.000000, 114.000000)">
                    <rect id="quad" fill="#FFFF00" x="0" y="0" width="128" height="114"></rect>
                    <circle id="dot" fill="#000000" cx="64" cy="56" r="32"></circle>
                </g>
                <g id="d" transform="translate(128.000000, 114.000000)">
                    <rect id="bar-3" fill="#FBFC01" x="0" y="76" width="128" height="38"></rect>
                    <rect id="bar-2" fill="#003298" x="0" y="38" width="128" height="39"></rect>
                    <rect id="bar-1" fill="#FBFC01" x="0" y="0" width="128" height="38"></rect>
                </g>
            </g>
        </g>
    </g>
</svg>