<svg xmlns="http://www.w3.org/2000/svg" viewBox="0 0 454 106"><title>moin_horizontal_454x106</title><path d="M0,0V106H106V0H0ZM95.73,3L53.94,45,11.15,3H95.73ZM3,9.27L46,52.06,3,94.85V9.27ZM11.15,103L53.94,60l42.79,43H11.15ZM103,94.85L61,52.06l42-41.79V94.85Z"/><circle cx="285" cy="53" r="22.5"/><path d="M232,0V106H338V0H232ZM335,103H235V3H335V103Z"/><rect x="401" y="53" width="25" height="25"/><rect x="376" y="28" width="25" height="25"/><path d="M348,0V106H454V0H348ZM451,28H426V53h25V78H426v25H401V78H376v25H351V78h25V53H351V28h25V3h25V28h25V3h25V28Z"/><path d="M116,0V106H222V0H116Zm3,103V3L219,103H119Z"/></svg>
